<?xml version="1.0" standalone="no"?>
<!DOCTYPE svg PUBLIC "-//W3C//DTD SVG 20010904//EN"
 "http://www.w3.org/TR/2001/REC-SVG-20010904/DTD/svg10.dtd">
<svg version="1.0" xmlns="http://www.w3.org/2000/svg"
 width="500.000000pt" height="500.000000pt" viewBox="0 0 500.000000 500.000000"
 preserveAspectRatio="xMidYMid meet">

<g transform="translate(0.000000,500.000000) scale(0.100000,-0.100000)"
fill="#000000" stroke="none">
<path d="M962 4600 c-108 -28 -186 -75 -272 -160 -278 -278 -226 -722 108
-938 96 -62 186 -87 317 -87 136 0 225 26 331 97 261 174 347 500 206 781 -45
90 -160 208 -249 255 -132 70 -298 89 -441 52z"/>
<path d="M3693 4601 c-87 -24 -131 -46 -210 -106 -104 -77 -179 -188 -219
-321 -24 -80 -24 -238 0 -318 79 -264 321 -447 588 -446 213 1 431 134 530
326 120 229 81 504 -99 694 -114 121 -244 180 -413 186 -82 3 -120 0 -177 -15z"/>
<path d="M2285 3994 c-79 -17 -198 -66 -283 -116 -85 -50 -248 -218 -304 -313
-269 -457 -84 -1052 397 -1281 126 -59 189 -74 345 -81 156 -6 255 9 378 58
201 80 393 261 487 460 61 130 78 213 78 384 0 171 -17 254 -78 384 -95 200
-298 390 -496 465 -149 56 -368 72 -524 40z"/>
<path d="M458 3400 c-104 -31 -166 -128 -208 -320 -27 -123 -43 -315 -39 -475
4 -129 6 -144 32 -197 33 -67 89 -118 172 -158 90 -42 147 -50 365 -50 l198 0
59 58 c134 134 308 217 497 237 36 4 66 9 66 12 0 3 -9 18 -21 34 -37 53 -107
213 -130 299 -19 71 -23 111 -23 250 l-1 166 -65 -18 c-233 -65 -459 -32 -739
108 -69 35 -128 64 -131 63 -3 0 -17 -4 -32 -9z"/>
<path d="M4338 3345 c-238 -116 -397 -153 -579 -134 -50 5 -117 16 -149 24
-32 8 -60 15 -62 15 -2 0 -5 -64 -5 -142 -1 -206 -43 -369 -137 -529 l-44 -74
87 -13 c196 -28 357 -109 491 -246 l44 -46 201 0 c269 0 363 24 466 117 92 83
113 177 99 434 -20 358 -76 547 -185 620 -68 46 -85 44 -227 -26z"/>
<path d="M1485 2330 c-309 -62 -523 -329 -614 -770 -53 -253 -71 -609 -38
-743 48 -194 176 -335 367 -405 l75 -27 1175 -3 c1048 -2 1183 -1 1248 13 207
46 373 202 426 400 66 246 -7 820 -139 1100 -134 282 -359 445 -615 445 l-66
0 -152 -99 c-84 -55 -185 -113 -225 -130 -189 -78 -377 -110 -546 -91 -204 22
-345 76 -561 215 l-163 105 -66 -1 c-36 -1 -84 -5 -106 -9z"/>
</g>
</svg>
